<?xml version="1.0" encoding="UTF-8"?>
<svg version="1.1" xmlns="http://www.w3.org/2000/svg" width="507" height="421">
<path d="M0 0 C12.22337828 -0.21390748 24.21629636 0.41948622 36.38708496 1.51182556 C38.28602386 1.67672929 40.1850189 1.84098751 42.08406401 2.00466353 C47.25483673 2.45219179 52.42477006 2.90881868 57.59460282 3.36706054 C63.18763813 3.86117959 68.78141851 4.34672866 74.37510681 4.83338928 C85.30983515 5.78609187 96.24385888 6.74665771 107.17765617 7.70998042 C119.90834154 8.83134663 132.63968939 9.94510148 145.37106341 11.05861706 C168.75933562 13.10450217 192.14690635 15.15828327 215.53416537 17.21570892 C236.89125046 19.09449452 258.24885191 20.96729497 279.60693359 22.8347168 C280.98069651 22.95483225 282.35445942 23.07494782 283.72822231 23.19506352 C284.40738546 23.2544464 285.08654862 23.31382928 285.78629247 23.37501164 C289.20502038 23.67393218 292.6237472 23.97286508 296.04247284 24.27181149 C296.71692439 24.33078752 297.39137594 24.38976356 298.08626541 24.45052675 C315.94088628 26.01186451 333.79512622 27.57754403 351.64924669 29.1445933 C352.91726615 29.25588657 354.1852856 29.36717984 355.49172989 29.48184564 C358.03853767 29.70537783 360.58534494 29.92891585 363.13215169 30.15245975 C372.01441943 30.93193107 380.89685223 31.70950384 389.77934265 32.48643303 C400.58582263 33.43174481 411.39200451 34.38038409 422.19781756 35.33329027 C427.71468981 35.81972205 433.23168057 36.30468921 438.74902153 36.78577805 C443.79052967 37.22542341 448.83165626 37.66919484 453.87250024 38.1163891 C455.70429477 38.27815016 457.5362273 38.43835695 459.36830109 38.59692382 C461.8416883 38.81122531 464.31452744 39.03099463 466.78730011 39.25225735 C467.51299956 39.31380415 468.238699 39.37535096 468.98638934 39.43876281 C473.8858465 39.8858465 473.8858465 39.8858465 475 41 C476.15677121 57.5782031 473.86970046 74.39661849 472.39382637 90.90012717 C472.00976649 95.21443274 471.63487088 99.52953646 471.25878906 103.84454346 C470.52290754 112.27155691 469.7788012 120.69782429 469.03191156 129.12386842 C468.16164738 138.94586029 467.30006863 148.76860837 466.43891167 158.59140222 C464.9022863 176.116012 463.35847893 193.63998139 461.81030273 211.16357422 C460.30912117 228.15537337 458.81207473 245.14752939 457.32006836 262.14013672 C457.18202117 263.712353 457.18202117 263.712353 457.04118515 265.31633122 C456.67123067 269.52985712 456.30128888 273.74338414 455.93136779 277.95691297 C454.33556389 296.13253459 452.73646273 314.30786634 451.1368359 332.48315185 C450.87823683 335.42166929 450.61970891 338.36019298 450.3611958 341.29871798 C449.45647977 351.58173131 448.55073954 361.86465299 447.64223785 372.14733262 C447.26673542 376.39739639 446.89166258 380.64749673 446.51784325 384.89770889 C446.17551446 388.78957982 445.83180745 392.68132651 445.4870007 396.57297866 C445.36265676 397.97898943 445.23879897 399.38504329 445.11548276 400.79114456 C444.94740766 402.7066652 444.77733999 404.62201068 444.60718632 406.53734779 C444.46649994 408.13120715 444.46649994 408.13120715 444.3229714 409.75726569 C443.94867175 413.51535178 443.48129248 417.25416056 443 421 C429.8099731 421.18484967 416.85723636 420.71469649 403.72358704 419.52613831 C401.87314318 419.36524627 400.0226328 419.2051178 398.17206353 419.04567474 C393.14882199 418.61069798 388.1265782 418.16505636 383.10444558 417.71748245 C377.66477315 417.23464297 372.22421724 416.76195185 366.7837677 416.28796387 C356.15348954 415.36025988 345.52403462 414.42343235 334.89482591 413.48356313 C322.50790926 412.3886865 310.12014668 411.30353084 297.73233058 410.21888613 C275.6322259 408.2835827 253.53282041 406.34040562 231.43383789 404.39233398 C210.00032368 402.50293784 188.56644142 400.61779937 167.13208008 398.73803711 C166.47090923 398.68005199 165.80973839 398.62206687 165.12853207 398.56232463 C159.14750557 398.03778737 153.16647561 397.51328951 147.18544265 396.98882595 C123.03618574 394.87116701 98.88718332 392.75060752 74.73828125 390.62890625 C73.51300218 390.52125573 72.2877231 390.41360522 71.02531436 390.30269256 C55.71910071 388.95783352 40.41301982 387.61147741 25.10714531 386.26276398 C20.84250932 385.88700442 16.57783272 385.51171117 12.31311798 385.13684654 C7.40419179 384.70533098 2.49535313 384.2728334 -2.41341672 383.8395431 C-4.18817163 383.68304826 -5.96295674 383.52689553 -7.73777505 383.37112135 C-24.08303488 381.93609577 -24.08303488 381.93609577 -32 381 C-32.1408419 370.12388893 -31.81519843 359.42515304 -30.82984924 348.58375549 C-30.70206526 347.11608568 -30.57493172 345.64835912 -30.44838089 344.18058246 C-30.10345912 340.20154049 -29.74947286 336.2233523 -29.39382637 332.24525654 C-29.01008086 327.9342764 -28.63498955 323.62254173 -28.25878906 319.31089783 C-27.52252704 310.88778924 -26.77850989 302.46538322 -26.03191156 294.04318524 C-25.16187184 284.22441053 -24.30016897 274.40490943 -23.43891167 264.58536112 C-21.90187702 247.0636341 -20.35817063 229.54250159 -18.81030273 212.02172852 C-17.30977868 195.03670816 -15.81270516 178.0513892 -14.32006836 161.06567383 C-14.2280369 160.01839772 -14.13600544 158.97112162 -14.04118515 157.89210988 C-13.67122116 153.68193783 -13.30127947 149.47176382 -12.93136779 145.26158718 C-10.09700485 113.00263486 -7.25940713 80.74396462 -4.41155243 48.48620033 C-4.11339763 45.10887581 -3.81550026 41.73152874 -3.51784325 38.35416031 C-3.17476096 34.46159525 -2.83110858 30.56908094 -2.4870007 26.67660641 C-2.36296272 25.272522 -2.23911509 23.86842076 -2.11548276 22.46430058 C-1.45557764 14.97130663 -0.77263886 7.48228378 0 0 Z " fill="#FEB9AD" transform="translate(32,0)"/>
<path d="M0 0 C1.3529866 0.12965768 2.70601814 0.25884681 4.05908203 0.38769531 C4.83713196 0.4692688 5.61518188 0.55084229 6.41680908 0.6348877 C10.56505471 1.04872511 14.72066169 1.36388427 18.87631226 1.69354248 C23.9410493 2.09741954 29.00399543 2.52199278 34.06713867 2.9453125 C37.92804906 3.26775478 41.78920361 3.58713955 45.65039062 3.90625 C59.45437693 5.05342643 73.24960158 6.27353469 87.03915024 7.58143997 C100.83409247 8.88934699 114.63672181 10.10047902 128.44247437 11.28860474 C135.89552128 11.93007357 143.34815451 12.57632718 150.80078125 13.22265625 C151.57887587 13.29010984 152.35697048 13.35756344 153.15864372 13.42706108 C173.02979938 15.15038157 192.89699792 16.91814388 212.76433182 18.68487549 C236.73539239 20.81641554 260.70908521 22.91130311 284.68753052 24.95822144 C298.84767989 26.16815655 312.99604637 27.43865673 327.13525391 28.8737793 C334.24414077 29.57881372 341.35577727 30.16066888 348.48046875 30.67578125 C349.38699188 30.741604 350.29351501 30.80742676 351.22750854 30.87524414 C355.69347426 31.19752266 360.15984347 31.51029126 364.62744141 31.80908203 C366.25814715 31.92337239 367.88884419 32.03778714 369.51953125 32.15234375 C370.24944275 32.19810043 370.97935425 32.24385712 371.73138428 32.29100037 C385.43500369 33.27484744 385.43500369 33.27484744 389.05859375 36.8984375 C389.53412907 44.88566969 388.57459561 52.90190902 387.88671875 60.85961914 C387.68737569 63.16715886 387.49355515 65.47510635 387.30078125 67.78320312 C386.65466221 75.44217716 385.94800811 83.09222034 385.1640625 90.73828125 C383.69484707 105.13854742 382.47017484 119.56231949 381.20153809 133.98132324 C380.74054333 139.21730808 380.27525073 144.45290673 379.80957031 149.68847656 C378.42692312 165.24935003 377.05461919 180.8105339 375.76436806 196.37937164 C375.38598828 200.92635847 374.99854086 205.47258288 374.61245728 210.0189209 C374.41070621 212.42874896 374.21386704 214.83899353 374.02206421 217.24963379 C373.75970422 220.5451502 373.48132378 223.83893713 373.19921875 227.1328125 C373.09173058 228.57074158 373.09173058 228.57074158 372.98207092 230.03771973 C372.90452072 230.9066687 372.82697052 231.77561768 372.74707031 232.67089844 C372.68602112 233.42079041 372.62497192 234.17068237 372.56207275 234.94329834 C371.92650551 237.41137028 371.08607478 238.37563593 369.05859375 239.8984375 C366.39840067 240.15729143 364.00075258 240.23882873 361.34765625 240.1640625 C360.20957016 240.14669037 360.20957016 240.14669037 359.04849243 240.12896729 C351.48311079 239.97146373 343.96431643 239.36369986 336.43359375 238.6484375 C334.96858147 238.51495524 333.50349053 238.38233413 332.03833008 238.25048828 C329.66797651 238.03712405 327.29768759 237.82320129 324.92762756 237.6065979 C318.13661582 236.98747173 311.34241239 236.4108374 304.546875 235.84375 C303.48521118 235.75488525 302.42354736 235.66602051 301.32971191 235.57446289 C297.08674106 235.21939042 292.84376066 234.8644678 288.6005249 234.51257324 C285.6319227 234.26589131 282.6635982 234.0160828 279.6953125 233.765625 C278.80926834 233.69280304 277.92322418 233.61998108 277.0103302 233.54495239 C272.6433707 233.17388673 268.38229499 232.62748732 264.05859375 231.8984375 C261.6050911 231.67919568 259.14887401 231.48941137 256.69140625 231.3203125 C255.17828859 231.21302691 253.66518723 231.10551124 252.15209961 230.99780273 C251.34642548 230.94131561 250.54075134 230.88482849 249.71066284 230.82662964 C225.70698876 229.13404987 201.74863442 226.95319618 177.78497314 224.77651978 C167.81218006 223.87206533 157.83660624 223.00162195 147.85998535 222.14056396 C144.09386123 221.81505491 140.32795215 221.48709522 136.56204224 221.15911865 C124.44633662 220.10404957 112.33006395 219.05557953 100.21350098 218.01040649 C96.61980416 217.70003027 93.02620892 217.38849472 89.43261719 217.0769043 C75.58927961 215.87886947 61.74442324 214.70199408 47.89680481 213.55439758 C41.32686194 213.00986211 34.75733217 212.46041091 28.18787289 211.91007519 C22.62771183 211.44476547 17.06705669 210.98601953 11.50598049 210.53178596 C8.01120645 210.24474199 4.51697356 209.95148523 1.02285576 209.65657043 C-0.61347499 209.51975132 -2.25002445 209.38552009 -3.88679314 209.25404358 C-6.14293649 209.07246368 -8.39812603 208.88168318 -10.65332031 208.6887207 C-11.92177795 208.5838887 -13.1902356 208.4790567 -14.49713135 208.37104797 C-18.96602662 207.75784294 -22.69459185 207.1452519 -25.94140625 203.8984375 C-26.14966759 201.29210808 -26.22296969 198.81757485 -26.19140625 196.2109375 C-26.18681396 195.42944336 -26.18222168 194.64794922 -26.17749023 193.84277344 C-26.01362354 182.71720149 -25.44281449 171.19844756 -23.45979309 160.23600769 C-22.87852589 156.49359 -22.59034522 152.76603489 -22.35009766 148.99047852 C-22.24106079 147.37286376 -22.13178539 145.75526508 -22.02230835 144.13768005 C-21.96505962 143.27872068 -21.9078109 142.41976131 -21.84882736 141.53477287 C-20.14029572 116.07636844 -17.89464582 90.66885694 -15.62164307 65.25579834 C-15.20821136 60.62372641 -14.79829829 55.99134582 -14.38846397 51.35895443 C-13.89444927 45.77694256 -13.39848688 40.19510427 -12.90234375 34.61328125 C-12.80989758 33.57146132 -12.7174514 32.52964138 -12.62220383 31.45625114 C-12.36037708 28.50971804 -12.09716239 25.56331235 -11.83349609 22.61694336 C-11.71972374 21.33379242 -11.71972374 21.33379242 -11.60365295 20.02471924 C-11.39016809 17.64855332 -11.16655562 15.27352267 -10.94140625 12.8984375 C-10.86937831 12.06944317 -10.79735037 11.24044884 -10.72313976 10.38633347 C-10.64664857 9.5828661 -10.57015738 8.77939873 -10.49134827 7.95158386 C-10.42620561 7.23376834 -10.36106295 6.51595282 -10.29394627 5.77638531 C-9.94140625 3.8984375 -9.94140625 3.8984375 -8.25024414 1.32958984 C-5.17641892 -0.57574625 -3.59131544 -0.38999504 0 0 Z " fill="#FDF7F5" transform="translate(70.94140625,72.1015625)"/>
<path d="M0 0 C7.54285714 0.62857143 7.54285714 0.62857143 10 2.625 C12.70356388 4.48370017 14.55451698 3.85146027 17.67578125 3.34375 C30.83444674 1.39759443 42.27676853 5.36961708 53 13 C53.70576172 13.804375 53.70576172 13.804375 54.42578125 14.625 C56.68549582 16.59874573 58.67326899 16.59808907 61.625 16.9375 C67.30276527 17.74564907 71.93057387 19.36287429 77 22 C76.73661122 29.24319155 74.19413189 34.80586811 69 40 C68.89184775 41.76949095 68.81433917 43.54087487 68.75 45.3125 C68.10229434 53.54621281 65.91445222 61.82549967 59.625 67.5625 C56.31491701 70.0286937 52.86322729 71.58085528 49 73 C49.639375 73.86625 50.27875 74.7325 50.9375 75.625 C52.97548296 78.9598812 53.63433093 81.16047478 54 85 C54.84304688 84.97679687 55.68609375 84.95359375 56.5546875 84.9296875 C57.65039062 84.91164063 58.74609375 84.89359375 59.875 84.875 C60.96554687 84.85179687 62.05609375 84.82859375 63.1796875 84.8046875 C66 85 66 85 68 87 C67.7773283 89.30094091 67.20548248 90.70230453 65.89453125 92.6015625 C63.01086723 94.73012275 60.4119861 94.37676388 56.875 94.4375 C51.3639315 94.6440253 47.04361334 95.37894063 42.13671875 97.94921875 C38.88191029 99.54984668 35.45539806 100.42358603 31.96875 101.38671875 C30.01797952 101.8270846 30.01797952 101.8270846 29 103 C23.26388889 103.27314815 23.26388889 103.27314815 21 103 C19 101 19 101 18.875 97.875 C18.91625 96.92625 18.9575 95.9775 19 95 C17.30230469 94.92652344 17.30230469 94.92652344 15.5703125 94.8515625 C14.08851661 94.77653486 12.606747 94.70098703 11.125 94.625 C10.37863281 94.5940625 9.63226563 94.563125 8.86328125 94.53125 C3.2265625 94.2265625 3.2265625 94.2265625 1 92 C1.125 89.5625 1.125 89.5625 2 87 C2.67289063 86.64164062 3.34578125 86.28328125 4.0390625 85.9140625 C6.3975896 83.61191453 6.30201726 82.96313022 6.390625 79.76953125 C6.36407407 78.11673599 6.31642461 76.46417337 6.25 74.8125 C6.23195312 73.96751953 6.21390625 73.12253906 6.1953125 72.25195312 C6.14820586 70.16748427 6.07646233 68.08359856 6 66 C5.11699219 65.92136719 4.23398438 65.84273438 3.32421875 65.76171875 C-0.58797085 64.86527108 -2.2616696 63.52059419 -5.1875 60.8125 C-6.02667969 60.05582031 -6.86585938 59.29914063 -7.73046875 58.51953125 C-11.82116946 53.97821979 -13.47121269 49.95270164 -13.23046875 43.95703125 C-12.72862949 39.69565039 -11.36071401 36.54107102 -9 33 C-8.26777572 30.80609026 -7.58491604 28.59541546 -6.9375 26.375 C-5.10296412 20.10296412 -5.10296412 20.10296412 -4 19 C-3.55244569 15.63770123 -3.17888746 12.27672978 -2.83789062 8.90234375 C-2.4273108 5.23716777 -2.08071813 3.12107719 0 0 Z " fill="#F4F4EE" transform="translate(226,118)"/>
<path d="M0 0 C7.54285714 0.62857143 7.54285714 0.62857143 10 2.625 C12.70356388 4.48370017 14.55451698 3.85146027 17.67578125 3.34375 C30.83444674 1.39759443 42.27676853 5.36961708 53 13 C53.70576172 13.804375 53.70576172 13.804375 54.42578125 14.625 C56.68549582 16.59874573 58.67326899 16.59808907 61.625 16.9375 C67.30276527 17.74564907 71.93057387 19.36287429 77 22 C76.73661122 29.24319155 74.19413189 34.80586811 69 40 C68.89184775 41.76949095 68.81433917 43.54087487 68.75 45.3125 C68.10229434 53.54621281 65.91445222 61.82549967 59.625 67.5625 C56.31491701 70.0286937 52.86322729 71.58085528 49 73 C49.639375 73.86625 50.27875 74.7325 50.9375 75.625 C52.97548296 78.9598812 53.63433093 81.16047478 54 85 C54.84304688 84.97679687 55.68609375 84.95359375 56.5546875 84.9296875 C57.65039062 84.91164063 58.74609375 84.89359375 59.875 84.875 C60.96554687 84.85179687 62.05609375 84.82859375 63.1796875 84.8046875 C66 85 66 85 68 87 C67.7773283 89.30094091 67.20548248 90.70230453 65.89453125 92.6015625 C63.01086723 94.73012275 60.4119861 94.37676388 56.875 94.4375 C51.3639315 94.6440253 47.04361334 95.37894063 42.13671875 97.94921875 C38.88191029 99.54984668 35.45539806 100.42358603 31.96875 101.38671875 C30.01797952 101.8270846 30.01797952 101.8270846 29 103 C23.26388889 103.27314815 23.26388889 103.27314815 21 103 C19 101 19 101 18.875 97.875 C18.91625 96.92625 18.9575 95.9775 19 95 C17.30230469 94.92652344 17.30230469 94.92652344 15.5703125 94.8515625 C14.08851661 94.77653486 12.606747 94.70098703 11.125 94.625 C10.37863281 94.5940625 9.63226563 94.563125 8.86328125 94.53125 C3.2265625 94.2265625 3.2265625 94.2265625 1 92 C1.125 89.5625 1.125 89.5625 2 87 C2.67289063 86.64164062 3.34578125 86.28328125 4.0390625 85.9140625 C6.3975896 83.61191453 6.30201726 82.96313022 6.390625 79.76953125 C6.36407407 78.11673599 6.31642461 76.46417337 6.25 74.8125 C6.23195312 73.96751953 6.21390625 73.12253906 6.1953125 72.25195312 C6.14820586 70.16748427 6.07646233 68.08359856 6 66 C5.11699219 65.92136719 4.23398438 65.84273438 3.32421875 65.76171875 C-0.58797085 64.86527108 -2.2616696 63.52059419 -5.1875 60.8125 C-6.02667969 60.05582031 -6.86585938 59.29914063 -7.73046875 58.51953125 C-11.82116946 53.97821979 -13.47121269 49.95270164 -13.23046875 43.95703125 C-12.72862949 39.69565039 -11.36071401 36.54107102 -9 33 C-8.26777572 30.80609026 -7.58491604 28.59541546 -6.9375 26.375 C-5.10296412 20.10296412 -5.10296412 20.10296412 -4 19 C-3.55244569 15.63770123 -3.17888746 12.27672978 -2.83789062 8.90234375 C-2.4273108 5.23716777 -2.08071813 3.12107719 0 0 Z M1 2 C-0.57260467 5.87909152 -1.16652343 9.36196196 -1.4375 13.5 C-1.7758651 18.07100483 -2.91191957 20.91084249 -5 25 C-5.53794146 28.32317106 -5.80746126 31.64053097 -6 35 C-3.69 35.33 -1.38 35.66 1 36 C1.33 35.34 1.66 34.68 2 34 C3.65 34 5.3 34 7 34 C7 35.98 7 37.96 7 40 C2.71 40 -1.58 40 -6 40 C-6 39.34 -6 38.68 -6 38 C-9.12197478 39.3089572 -9.12197478 39.3089572 -11 42 C-11.59554129 47.95541292 -10.47710605 52.21169474 -7 57 C-1.75245709 62.05773817 3.50831984 64.88736516 10.875 65.125 C11.90625 65.08375 12.9375 65.0425 14 65 C14 65.66 14 66.32 14 67 C12.02 67 10.04 67 8 67 C7.62853373 76.88513008 8.62796782 84.58381625 14 93 C14.66 93 15.32 93 16 93 C17.59854133 87.0853971 16.25890714 81.84715547 15 76 C15.66 76 16.32 76 17 76 C16.95875 77.11375 16.9175 78.2275 16.875 79.375 C16.58878141 83.04366025 16.58878141 83.04366025 19 85 C20.49821059 81.62902617 21 79.79557881 21 76 C21.66 76 22.32 76 23 76 C22.54619105 77.89692143 22.08675008 79.79249595 21.625 81.6875 C21.36976563 82.74324219 21.11453125 83.79898438 20.8515625 84.88671875 C20.08094511 87.70406766 19.14501457 90.31668325 18 93 C19.32 93.33 20.64 93.66 22 94 C26.05269101 89.36533599 26.05269101 89.36533599 29 84 C29 85.98 29 87.96 29 90 C29.99 90.495 29.99 90.495 31 91 C30.16855469 91.39832031 30.16855469 91.39832031 29.3203125 91.8046875 C28.59585938 92.15789062 27.87140625 92.51109375 27.125 92.875 C26.40570313 93.22304687 25.68640625 93.57109375 24.9453125 93.9296875 C22.84864981 94.96557543 22.84864981 94.96557543 21 97 C21 97.99 21 98.98 21 100 C26.89579212 100.23768031 31.59678755 99.57968771 37.1875 97.75 C37.87263672 97.54503906 38.55777344 97.34007812 39.26367188 97.12890625 C43.56554027 95.76257654 46.71309955 94.09500984 50 91 C51.9621746 87.0756508 51.37448674 82.37311804 50.25 78.25 C48.71443549 75.48598388 47.60033066 73.84760336 45 72 C42.24236785 71.66718233 39.79466864 71.81368876 37 72 C37 71.34 37 70.68 37 70 C37.845625 70.04640625 38.69125 70.0928125 39.5625 70.140625 C46.62910456 70.36547151 52.234409 70.39609195 58 66 C64.08468015 60.18575008 65.95702255 53.69891528 66.3125 45.5 C66.65239679 40.23159969 68.36397097 37.13089811 71.52734375 32.97265625 C74.19661781 29.39710347 75 27.56568955 75 23 C70.28651992 20.95452751 66.71036931 19.89950624 61.5625 19.8125 C55.70698679 19.43446549 53.40925688 17.04196654 49.32421875 13.078125 C40.74343396 5.40589389 31.09545288 5.52081814 20.18505859 6.09570312 C13.66098547 6.36446454 10.44129735 5.57411721 5 2 C3.68 2 2.36 2 1 2 Z " fill="#6E5649" transform="translate(226,118)"/>
<path d="M0 0 C1.26328125 0.09796875 2.5265625 0.1959375 3.828125 0.296875 C4.51463135 0.3484375 5.2011377 0.4 5.90844727 0.453125 C8.29954206 0.63820809 10.68863599 0.84212637 13.078125 1.046875 C14.03251465 1.12486328 14.9869043 1.20285156 15.97021484 1.28320312 C18.98602461 1.53042458 22.00091843 1.78656309 25.015625 2.046875 C25.99305664 2.12969727 26.97048828 2.21251953 27.97753906 2.29785156 C29.34023926 2.42111816 29.34023926 2.42111816 30.73046875 2.546875 C31.95237915 2.65515625 31.95237915 2.65515625 33.19897461 2.765625 C35.078125 3.046875 35.078125 3.046875 36.078125 4.046875 C36.46556338 11.06634684 36.19708748 18.10930765 35.078125 25.046875 C33.078125 27.046875 33.078125 27.046875 29.6484375 27.09375 C28.16590934 27.00687185 26.68411078 26.90695989 25.203125 26.796875 C24.41752197 26.7453125 23.63191895 26.69375 22.82250977 26.640625 C16.54552547 26.2060693 10.27865643 25.64789015 4.015625 25.046875 C3.14115723 24.96405273 2.26668945 24.88123047 1.36572266 24.79589844 C-4.80013845 24.16861155 -4.80013845 24.16861155 -5.921875 23.046875 C-6.30931338 16.02740316 -6.04083748 8.98444235 -4.921875 2.046875 C-2.921875 0.046875 -2.921875 0.046875 0 0 Z " fill="#0D0D0D" transform="translate(204.921875,255.953125)"/>
<path d="M0 0 C34.3580786 1.3580786 34.3580786 1.3580786 36 3 C36.37288803 10.37002224 36.09419677 17.70535486 35 25 C33.37155911 26.62844089 31.63555603 26.17121357 29.375 26.1875 C22.82872292 26.13977502 16.33347837 25.61571291 9.8125 25.0625 C8.77206543 24.97572998 7.73163086 24.88895996 6.65966797 24.79956055 C5.68529785 24.71230713 4.71092773 24.62505371 3.70703125 24.53515625 C2.8250708 24.456604 1.94311035 24.37805176 1.03442383 24.29711914 C-1 24 -1 24 -2 23 C-2.12770009 20.25890274 -2.185221 17.55414003 -2.1875 14.8125 C-2.19974609 14.05646484 -2.21199219 13.30042969 -2.22460938 12.52148438 C-2.23650902 7.94805376 -1.73749871 4.30597506 0 0 Z " fill="#0A0A0A" transform="translate(255,261)"/>
<path d="M0 0 C7.36351166 0.48285322 7.36351166 0.48285322 10 2.625 C12.70356388 4.48370017 14.55451698 3.85146027 17.67578125 3.34375 C30.83444674 1.39759443 42.27676853 5.36961708 53 13 C53.47050781 13.53625 53.94101562 14.0725 54.42578125 14.625 C56.68549582 16.59874573 58.67326899 16.59808907 61.625 16.9375 C67.30276527 17.74564907 71.93057387 19.36287429 77 22 C76.73661122 29.24319155 74.19413189 34.80586811 69 40 C68.89184775 41.76949095 68.81433917 43.54087487 68.75 45.3125 C68.10229434 53.54621281 65.91445222 61.82549967 59.625 67.5625 C56.31491701 70.0286937 52.86322729 71.58085528 49 73 C49.639375 73.86625 50.27875 74.7325 50.9375 75.625 C52.97548296 78.9598812 53.63433093 81.16047478 54 85 C54.84304688 84.97679687 55.68609375 84.95359375 56.5546875 84.9296875 C57.65039062 84.91164063 58.74609375 84.89359375 59.875 84.875 C60.96554687 84.85179687 62.05609375 84.82859375 63.1796875 84.8046875 C66 85 66 85 68 87 C67.63318342 89.93453261 67.13562754 90.86437246 65 93 C62.875 92.625 62.875 92.625 61 92 C61.9590625 91.5978125 61.9590625 91.5978125 62.9375 91.1875 C65.33131686 90.11332248 65.33131686 90.11332248 66 87 C59.565 87.99 59.565 87.99 53 89 C52.505 90.485 52.505 90.485 52 92 C52.99 92.495 52.99 92.495 54 93 C52.68 93 51.36 93 50 93 C50.02320313 92.19175781 50.04640625 91.38351563 50.0703125 90.55078125 C50.08835937 89.48214844 50.10640625 88.41351563 50.125 87.3125 C50.14820313 86.25675781 50.17140625 85.20101562 50.1953125 84.11328125 C49.95456072 80.27569791 48.94398671 77.46842377 46.875 74.25 C43.81546675 72.21031117 40.62964667 72.29751202 37 72 C37 71.34 37 70.68 37 70 C37.845625 69.97421875 38.69125 69.9484375 39.5625 69.921875 C47.93497175 69.50325141 54.11223047 68.67761983 60.3125 62.8125 C63.65364894 57.24391843 65.04066994 51.96955539 65.3125 45.5 C65.65800763 40.22917091 67.3718431 37.3143003 70.5 33.1484375 C72.72725337 29.95836106 73.79463265 26.68306691 75 23 C70.36583565 21.68844405 66.3810737 20.96322741 61.5625 20.875 C55.73347438 20.44262722 53.39495047 18.02808457 49.32421875 14.078125 C40.74343396 6.40589389 31.09545288 6.52081814 20.18505859 7.09570312 C13.66098547 7.36446454 10.44129735 6.57411721 5 3 C3.68 3 2.36 3 1 3 C0.89042969 4.12019531 0.78085938 5.24039063 0.66796875 6.39453125 C0.50850107 7.86726222 0.34830683 9.33991465 0.1875 10.8125 C0.11724609 11.55048828 0.04699219 12.28847656 -0.02539062 13.04882812 C-0.64766659 18.54974762 -0.64766659 18.54974762 -2.57421875 21.01171875 C-3.27998047 21.50091797 -3.27998047 21.50091797 -4 22 C-2.99853587 2.99853587 -2.99853587 2.99853587 0 0 Z " fill="#6E5548" transform="translate(226,118)"/>
<path d="M0 0 C4.29942535 0.47771393 6.2935135 1.61689187 9 5 C10.5437451 8.6020719 10.77676276 13.1731963 10 17 C7.11862838 21.70268307 4.1593439 23.06665474 -1 24.75 C-2.216875 25.15734375 -3.43375 25.5646875 -4.6875 25.984375 C-8.71538148 27.21933866 -12.03172011 28.13280466 -16.25 28.0625 C-18.10625 28.0315625 -18.10625 28.0315625 -20 28 C-19.67 26.68 -19.34 25.36 -19 24 C-18.01 24 -17.02 24 -16 24 C-16.33 24.33 -16.66 24.66 -17 25 C-10.30268657 25.32669822 -4.47756339 23.956018 1 20 C3.96267255 16.93151771 4.82983174 14.25420653 5 10 C3.75830563 6.84992165 3.75830563 6.84992165 2 4 C1.33333333 2.66666667 0.66666667 1.33333333 0 0 Z " fill="#EADFD8" transform="translate(267,190)"/>
<path d="M0 0 C-0.57584432 2.38564077 -1.22227595 4.66682784 -2 7 C-3.46759766 7.03867188 -3.46759766 7.03867188 -4.96484375 7.078125 C-11.80838248 7.37420731 -17.6941342 7.71776077 -23.86328125 10.94921875 C-27.11808971 12.54984668 -30.54460194 13.42358603 -34.03125 14.38671875 C-35.98202048 14.8270846 -35.98202048 14.8270846 -37 16 C-39.67058851 16.14115161 -42.32432238 16.04247107 -45 16 C-45 15.01 -45 14.02 -45 13 C-43.96101562 12.82984375 -42.92203125 12.6596875 -41.8515625 12.484375 C-32.65167428 10.91113118 -23.9015477 9.26769846 -16 4 C-16 4.66 -16 5.32 -16 6 C-15.34 5.67 -14.68 5.34 -14 5 C-13.34786708 2.97536745 -13.34786708 2.97536745 -13 1 C-11.39602723 0.83147753 -9.7918131 0.66525114 -8.1875 0.5 C-6.84751953 0.36078125 -6.84751953 0.36078125 -5.48046875 0.21875 C-3 0 -3 0 0 0 Z " fill="#7F6A5D" transform="translate(292,205)"/>
<path d="M0 0 C0.33 0 0.66 0 1 0 C1.63253003 9.24196658 0.31089265 16.87757478 -5.3125 24.4375 C-12.18490781 30.99026093 -19.89441501 30.63375594 -29 31 C-29 30.34 -29 29.68 -29 29 C-28.32195312 29.020625 -27.64390625 29.04125 -26.9453125 29.0625 C-19.75687169 28.90319937 -15.6249056 27.14442339 -10.234375 22.40625 C-6.74928454 18.65307566 -4.37928447 14.50395916 -2 10 C-1.67 9.67 -1.34 9.34 -1 9 C-0.76807135 7.48530552 -0.58784762 5.96245438 -0.4375 4.4375 C-0.35371094 3.61121094 -0.26992188 2.78492188 -0.18359375 1.93359375 C-0.09271484 0.97646484 -0.09271484 0.97646484 0 0 Z " fill="#E3D8D1" transform="translate(291,158)"/>
<path d="M0 0 C0.66 0 1.32 0 2 0 C2.33 0.66 2.66 1.32 3 2 C3.78375 1.835 4.5675 1.67 5.375 1.5 C8 1 8 1 10 1 C10 1.66 10 2.32 10 3 C11.11375 3 12.2275 3 13.375 3 C15.25 3 17.125 3 19 3 C19.99 2.67 20.98 2.34 22 2 C22 4.31 22 6.62 22 9 C16.71533654 9 12.91519835 8.96607934 8 7 C7.01 7 6.02 7 5 7 C4.67 6.67 4.34 6.34 4 6 C3.34 6.66 2.68 7.32 2 8 C0 2.25 0 2.25 0 0 Z " fill="#A19D9C" transform="translate(141,231)"/>
<path d="M0 0 C7.36351166 0.48285322 7.36351166 0.48285322 10 2.625 C12.69325706 4.47661423 14.52241575 3.86838422 17.62890625 3.328125 C22.05943803 2.71500363 26.5363166 2.9261523 31 3 C31.495 3.99 31.495 3.99 32 5 C28.81685763 5.45595755 25.62903421 5.85747029 22.4375 6.25 C21.54224609 6.37890625 20.64699219 6.5078125 19.72460938 6.640625 C13.27513224 7.39660767 10.38423484 6.55780461 5 3 C3.68 3 2.36 3 1 3 C0.89042969 4.12019531 0.78085938 5.24039063 0.66796875 6.39453125 C0.50850107 7.86726222 0.34830683 9.33991465 0.1875 10.8125 C0.11724609 11.55048828 0.04699219 12.28847656 -0.02539062 13.04882812 C-0.64766659 18.54974762 -0.64766659 18.54974762 -2.57421875 21.01171875 C-3.27998047 21.50091797 -3.27998047 21.50091797 -4 22 C-2.99853587 2.99853587 -2.99853587 2.99853587 0 0 Z " fill="#685043" transform="translate(226,118)"/>
<path d="M0 0 C3.25696479 0.41755959 4.63443291 0.63443291 7 3 C7 3.99 7 4.98 7 6 C7.9590625 6.2165625 7.9590625 6.2165625 8.9375 6.4375 C11 7 11 7 12 8 C12.04063832 9.66617115 12.042721 11.33388095 12 13 C9.6568787 12.74438677 7.32156597 12.40729228 5 12 C4.67 11.34 4.34 10.68 4 10 C3.154375 9.5875 2.30875 9.175 1.4375 8.75 C0.633125 8.1725 -0.17125 7.595 -1 7 C-1.375 3.875 -1.375 3.875 -1 1 C-0.67 0.67 -0.34 0.34 0 0 Z " fill="#EEE6DF" transform="translate(255,155)"/>
<path d="M0 0 C0.061875 0.928125 0.061875 0.928125 0.125 1.875 C0.41375 2.57625 0.7025 3.2775 1 4 C3.99615946 5.3045656 3.99615946 5.3045656 7 6 C7.33 5.01 7.66 4.02 8 3 C9.65 3 11.3 3 13 3 C14.125 7.75 14.125 7.75 13 10 C10.56640625 10.44921875 10.56640625 10.44921875 7.5625 10.6875 C6.57378906 10.77386719 5.58507812 10.86023438 4.56640625 10.94921875 C2 11 2 11 0 10 C0 9.34 0 8.68 0 8 C-1.98 8.99 -1.98 8.99 -4 10 C-2.8905928 6.51329166 -1.73662334 3.22515763 0 0 Z " fill="#EAE4DC" transform="translate(220,148)"/>
<path d="M0 0 C3.1875 -0.5 3.1875 -0.5 7 0 C10.82211424 3.88984791 12.5949659 8.59954534 13 14 C13.84304688 13.97679687 14.68609375 13.95359375 15.5546875 13.9296875 C17.19824219 13.90261719 17.19824219 13.90261719 18.875 13.875 C20.51082031 13.84019531 20.51082031 13.84019531 22.1796875 13.8046875 C25 14 25 14 27 16 C26.63318342 18.93453261 26.13562754 19.86437246 24 22 C21.875 21.625 21.875 21.625 20 21 C20.639375 20.731875 21.27875 20.46375 21.9375 20.1875 C24.33131686 19.11332248 24.33131686 19.11332248 25 16 C20.71 16.66 16.42 17.32 12 18 C11.67 18.99 11.34 19.98 11 21 C11.66 21.33 12.32 21.66 13 22 C11.68 22 10.36 22 9 22 C9.02320313 21.19175781 9.04640625 20.38351563 9.0703125 19.55078125 C9.08835937 18.48214844 9.10640625 17.41351563 9.125 16.3125 C9.14820313 15.25675781 9.17140625 14.20101562 9.1953125 13.11328125 C8.95188707 9.23307993 8.09169088 6.33980244 5.625 3.3125 C3.85029441 1.87908395 2.07739148 0.93124446 0 0 Z " fill="#684F42" transform="translate(267,189)"/>
<path d="M0 0 C7.42857143 -0.28571429 7.42857143 -0.28571429 11 2 C10.58894145 7.24099655 9.75960806 10.24039194 6 14 C5.34 14 4.68 14 4 14 C2.875 8.25 2.875 8.25 4 6 C3.01 5.67 2.02 5.34 1 5 C0.67 3.35 0.34 1.7 0 0 Z " fill="#F1B1A7" transform="translate(287,141)"/>
<path d="M0 0 C2.23915424 0.73602403 2.23915424 0.73602403 5.0625 -0.5 C5.0625 0.16 5.0625 0.82 5.0625 1.5 C5.7225 1.5 6.3825 1.5 7.0625 1.5 C7.0625 3.48 7.0625 5.46 7.0625 7.5 C6.7325 6.18 6.4025 4.86 6.0625 3.5 C5.4025 3.5 4.7425 3.5 4.0625 3.5 C4.0625 4.82 4.0625 6.14 4.0625 7.5 C2.4579444 7.35851011 0.85386233 7.21164314 -0.75 7.0625 C-1.64332031 6.98128906 -2.53664062 6.90007812 -3.45703125 6.81640625 C-5.9375 6.5 -5.9375 6.5 -8.9375 5.5 C-9.2675 3.85 -9.5975 2.2 -9.9375 0.5 C-8.98875 0.520625 -8.04 0.54125 -7.0625 0.5625 C-4.2522926 0.50629585 -2.57660733 -0.66493092 0 0 Z " fill="#948F8E" transform="translate(230.9375,239.5)"/>
<path d="M0 0 C4.97093824 0.41153737 9.44508386 0.79600832 14 3 C13.67369269 9.19983887 10.51419037 14.05030481 7 19 C6.34 19.33 5.68 19.66 5 20 C5 19.34 5 18.68 5 18 C4.34 18 3.68 18 3 18 C3.33 16.68 3.66 15.36 4 14 C4 14.99 4 15.98 4 17 C4.66 17 5.32 17 6 17 C6.28875 16.4225 6.5775 15.845 6.875 15.25 C7.59186044 13.81627912 8.3391364 12.39709085 9.125 11 C10.26721256 8.75306697 10.26721256 8.75306697 10 5 C7.24921116 4.08307039 5.64051087 3.89113917 2.8125 3.9375 C1.554375 3.958125 0.29625 3.97875 -1 4 C-0.67 2.68 -0.34 1.36 0 0 Z " fill="#EDE5DC" transform="translate(287,138)"/>
<path d="M0 0 C3.81671546 2.92344163 6.20163936 3.00504169 10.9375 3.25 C10.9375 3.58 10.9375 3.91 10.9375 4.25 C7.86932401 5.09516885 5.11968944 5.53474851 1.9375 5.25 C-0.26636685 3.76755862 -1.96781338 2.03364824 -3.859375 0.171875 C-12.1483569 -7.05893899 -22.60257461 -7.59281533 -33.0625 -7.75 C-33.0625 -8.08 -33.0625 -8.41 -33.0625 -8.75 C-20.21172484 -10.35906491 -9.81531566 -9.15211866 0 0 Z " fill="#796256" transform="translate(279.0625,131.75)"/>
<path d="M0 0 C2.1640625 0.0234375 2.1640625 0.0234375 4.625 0.375 C5.85089844 0.54128906 5.85089844 0.54128906 7.1015625 0.7109375 C7.72804687 0.80632812 8.35453125 0.90171875 9 1 C9.625 2.875 9.625 2.875 10 5 C7.62444839 7.37555161 6.69703006 7.36834858 3.4375 7.6875 C2.63183594 7.77386719 1.82617188 7.86023438 0.99609375 7.94921875 C0.33738281 7.96597656 -0.32132813 7.98273438 -1 8 C-2 7 -2 7 -2.1875 4.5625 C-2 2 -2 2 0 0 Z " fill="#A39E9C" transform="translate(192,237)"/>
<path d="M0 0 C1.04449911 3.13349732 0.93423645 3.98968256 0 7 C0.99 7.33 1.98 7.66 3 8 C2.28972656 8.38671875 1.57945312 8.7734375 0.84765625 9.171875 C-0.07144531 9.69265625 -0.99054688 10.2134375 -1.9375 10.75 C-2.85402344 11.26046875 -3.77054688 11.7709375 -4.71484375 12.296875 C-7.14892513 13.78860295 -7.14892513 13.78860295 -7.81640625 16.203125 C-7.87699219 16.79609375 -7.93757812 17.3890625 -8 18 C-6.35 18 -4.7 18 -3 18 C-3 18.33 -3 18.66 -3 19 C-4.98 19 -6.96 19 -9 19 C-9.66 16.69 -10.32 14.38 -11 12 C-10.4225 11.773125 -9.845 11.54625 -9.25 11.3125 C-4.84720937 8.74420547 -2.47666425 4.33416243 0 0 Z " fill="#5E4436" transform="translate(255,201)"/>
<path d="M0 0 C0.33 0.66 0.66 1.32 1 2 C1.969375 2.144375 2.93875 2.28875 3.9375 2.4375 C4.948125 2.623125 5.95875 2.80875 7 3 C7.99 4.485 7.99 4.485 9 6 C8.34 6 7.68 6 7 6 C7 6.66 7 7.32 7 8 C2.52941176 12 2.52941176 12 0 12 C-0.76173392 7.6835078 -1.16063604 4.25566547 0 0 Z " fill="#EBBCB2" transform="translate(226,121)"/>
<path d="M0 0 C1.81242052 -0.02687279 3.62495233 -0.04633715 5.4375 -0.0625 C6.44683594 -0.07410156 7.45617187 -0.08570313 8.49609375 -0.09765625 C11 0 11 0 12 1 C12.04063832 2.66617115 12.042721 4.33388095 12 6 C11.67 4.68 11.34 3.36 11 2 C10.34 2 9.68 2 9 2 C9 3.32 9 4.64 9 6 C5.50765756 6.09978121 2.40562852 5.77842938 -1 5 C-0.67 3.35 -0.34 1.7 0 0 Z " fill="#918D8E" transform="translate(309,248)"/>
<path d="M0 0 C0 0.66 0 1.32 0 2 C1.65 2 3.3 2 5 2 C5 3.65 5 5.3 5 7 C2.03 7 -0.94 7 -4 7 C-4.33 5.35 -4.66 3.7 -5 2 C-2 0 -2 0 0 0 Z " fill="#8D8A8A" transform="translate(286,244)"/>
<path d="M0 0 C-0.875 3.875 -0.875 3.875 -2 5 C-4.01964199 5.07244053 -6.04167124 5.08377188 -8.0625 5.0625 C-9.16722656 5.05347656 -10.27195312 5.04445312 -11.41015625 5.03515625 C-12.69212891 5.01775391 -12.69212891 5.01775391 -14 5 C-13.67 3.68 -13.34 2.36 -13 1 C-11.39602723 0.83147753 -9.7918131 0.66525114 -8.1875 0.5 C-7.29417969 0.4071875 -6.40085937 0.314375 -5.48046875 0.21875 C-3 0 -3 0 0 0 Z " fill="#E4DFD7" transform="translate(292,205)"/>
<path d="M0 0 C0.66 0 1.32 0 2 0 C2.33 2.31 2.66 4.62 3 7 C4.74627478 4.38058783 5.38722388 2.96175123 6 0 C6.66 0 7.32 0 8 0 C7.14285714 8.57142857 7.14285714 8.57142857 5 12 C4.34 11.67 3.68 11.34 3 11 C2.67 11.99 2.34 12.98 2 14 C0.4087311 9.126739 -0.21192221 5.19209404 0 0 Z " fill="#7A6456" transform="translate(241,194)"/>
<path d="M0 0 C1.98 0 3.96 0 6 0 C6.33 0.66 6.66 1.32 7 2 C7.66 1.67 8.32 1.34 9 1 C8.1875 3.9375 8.1875 3.9375 7 7 C6.01 7.33 5.02 7.66 4 8 C4 7.34 4 6.68 4 6 C2.35 5.67 0.7 5.34 -1 5 C-0.67 3.35 -0.34 1.7 0 0 Z " fill="#918D8D" transform="translate(334,250)"/>
<path d="M0 0 C0 2.31 0 4.62 0 7 C-3.34252724 7.07427838 -5.8035914 7.06546953 -9 6 C-9 4.68 -9 3.36 -9 2 C-9.99 2.33 -10.98 2.66 -12 3 C-12 2.34 -12 1.68 -12 1 C-9 1 -6 1 -3 1 C-1 0 -1 0 0 0 Z " fill="#8D8888" transform="translate(163,233)"/>
<path d="M0 0 C1.67542976 0.28604898 3.34385343 0.61781233 5 1 C5.625 3.375 5.625 3.375 6 6 C5.34 6.66 4.68 7.32 4 8 C1.375 7.625 1.375 7.625 -1 7 C-1.04254356 5.00045254 -1.04080783 2.99958364 -1 1 C-0.67 0.67 -0.34 0.34 0 0 Z " fill="#593F31" transform="translate(255,155)"/>
<path d="M0 0 C6.75 -0.125 6.75 -0.125 9 1 C10.32 1 11.64 1 13 1 C13 2.65 13 4.3 13 6 C10.69 6 8.38 6 6 6 C6 4.68 6 3.36 6 2 C5.34 2 4.68 2 4 2 C3.67 2.99 3.34 3.98 3 5 C2.67 4.01 2.34 3.02 2 2 C1.01 3.485 1.01 3.485 0 5 C0 3.35 0 1.7 0 0 Z " fill="#7B7574" transform="translate(242,242)"/>
<path d="M0 0 C0 2.31 0 4.62 0 7 C-4.875 6.125 -4.875 6.125 -6 5 C-8.05396726 5.40929986 -8.05396726 5.40929986 -10 6 C-9.67 4.35 -9.34 2.7 -9 1 C-8.13375 1.309375 -8.13375 1.309375 -7.25 1.625 C-4.04900167 2.15849972 -2.84679495 0 0 0 Z " fill="#827E7E" transform="translate(332,248)"/>
<path d="M0 0 C2.1640625 0.0234375 2.1640625 0.0234375 4.625 0.375 C5.85089844 0.54128906 5.85089844 0.54128906 7.1015625 0.7109375 C7.72804688 0.80632812 8.35453125 0.90171875 9 1 C9 2.65 9 4.3 9 6 C8.67 4.68 8.34 3.36 8 2 C7.34 2 6.68 2 6 2 C6 3.32 6 4.64 6 6 C3.69 6 1.38 6 -1 6 C-1.625 4.125 -1.625 4.125 -2 2 C-1.34 1.34 -0.68 0.68 0 0 Z " fill="#9D9795" transform="translate(260,243)"/>
<path d="M0 0 C0.66 0 1.32 0 2 0 C2.33 0.66 2.66 1.32 3 2 C5.02463255 2.65213292 5.02463255 2.65213292 7 3 C6.67 4.65 6.34 6.3 6 8 C3.69 7.67 1.38 7.34 -1 7 C-1.625 5.1875 -1.625 5.1875 -2 3 C-1.34 2.01 -0.68 1.02 0 0 Z " fill="#7D7D7F" transform="translate(271,270)"/>
<path d="M0 0 C2.31 0 4.62 0 7 0 C7 1.32 7 2.64 7 4 C7.66 4 8.32 4 9 4 C9.33 3.01 9.66 2.02 10 1 C10 2.65 10 4.3 10 6 C6.7 5.67 3.4 5.34 0 5 C0 3.35 0 1.7 0 0 Z " fill="#8E8A8B" transform="translate(205,239)"/>
<path d="M0 0 C3 0 6 0 9 0 C9.33 1.65 9.66 3.3 10 5 C8.125 5.625 8.125 5.625 6 6 C5.34 5.34 4.68 4.68 4 4 C3.01 5.485 3.01 5.485 2 7 C1.34 6.67 0.68 6.34 0 6 C0 4.02 0 2.04 0 0 Z " fill="#8A8687" transform="translate(172,236)"/>
<path d="M0 0 C1.2065625 0.0309375 1.2065625 0.0309375 2.4375 0.0625 C3.5625 4.8125 3.5625 4.8125 2.4375 7.0625 C0.7875 6.7325 -0.8625 6.4025 -2.5625 6.0625 C-2.94468767 4.40635343 -3.27645102 2.73792976 -3.5625 1.0625 C-2.5625 0.0625 -2.5625 0.0625 0 0 Z " fill="#583C2E" transform="translate(230.5625,150.9375)"/>
<path d="M0 0 C0.66 0 1.32 0 2 0 C2.33 0.66 2.66 1.32 3 2 C4.32 2 5.64 2 7 2 C7.33 2.99 7.66 3.98 8 5 C7.67 5.66 7.34 6.32 7 7 C4.69 7 2.38 7 0 7 C0 4.69 0 2.38 0 0 Z " fill="#8A8585" transform="translate(292,245)"/>
<path d="M0 0 C0.66 0.33 1.32 0.66 2 1 C1.67 1.33 1.34 1.66 1 2 C5.81938524 2.23509196 9.46298506 1.45184478 14 0 C14.66 0.66 15.32 1.32 16 2 C9.79485526 4.13619737 4.57315478 5.36517527 -2 5 C-1.125 1.125 -1.125 1.125 0 0 Z " fill="#E5DCD3" transform="translate(249,213)"/>
<path d="M0 0 C5.34844008 0.53484401 9.35796103 2.46690767 14 5 C14 5.33 14 5.66 14 6 C11.25 6.6875 11.25 6.6875 8 7 C5.875 5.625 5.875 5.625 4 4 C1.85266073 3.29485154 1.85266073 3.29485154 0 3 C0 2.01 0 1.02 0 0 Z " fill="#E0DBD0" transform="translate(227,120)"/>
<path d="M0 0 C2.97 0 5.94 0 9 0 C10 4 10 4 9.0625 6.25 C8.711875 6.8275 8.36125 7.405 8 8 C7.34 8 6.68 8 6 8 C6.33 6.68 6.66 5.36 7 4 C6.38125 4.185625 5.7625 4.37125 5.125 4.5625 C3 5 3 5 1 4 C1.66 3.01 2.32 2.02 3 1 C2.01 1.33 1.02 1.66 0 2 C0 1.34 0 0.68 0 0 Z " fill="#8A8687" transform="translate(344,249)"/>
<path d="M0 0 C1.171875 1.67578125 1.171875 1.67578125 2 4 C0.953125 6.54296875 0.953125 6.54296875 -0.75 9.1875 C-1.57757813 10.50814453 -1.57757813 10.50814453 -2.421875 11.85546875 C-4 14 -4 14 -6 15 C-6 14.34 -6 13.68 -6 13 C-6.66 13 -7.32 13 -8 13 C-7.67 11.68 -7.34 10.36 -7 9 C-7 9.99 -7 10.98 -7 12 C-6.34 12 -5.68 12 -5 12 C-2.91620491 8.15299368 -1.50313376 4.09945571 0 0 Z " fill="#E8D9CE" transform="translate(298,143)"/>
<path d="M0 0 C0.33 1.98 0.66 3.96 1 6 C-0.98 6 -2.96 6 -5 6 C-5 4.68 -5 3.36 -5 2 C-2 0 -2 0 0 0 Z " fill="#E5E0D7" transform="translate(235,204)"/>
<path d="M0 0 C0 2.31 0 4.62 0 7 C-1.32 7.33 -2.64 7.66 -4 8 C-4.33 6.35 -4.66 4.7 -5 3 C-1.125 0 -1.125 0 0 0 Z " fill="#908D8E" transform="translate(169,233)"/>
<path d="M0 0 C-0.33 0.66 -0.66 1.32 -1 2 C-1.66386719 1.84660156 -2.32773437 1.69320312 -3.01171875 1.53515625 C-6.60155922 0.89226979 -10.17795419 0.64966009 -13.8125 0.4375 C-14.85180664 0.37272461 -14.85180664 0.37272461 -15.91210938 0.30664062 C-17.60788686 0.20138547 -19.30392052 0.10027137 -21 0 C-21 -0.33 -21 -0.66 -21 -1 C-13.46462229 -1.94351599 -7.33152608 -2.07726572 0 0 Z " fill="#826A5D" transform="translate(267,124)"/>
<path d="M0 0 C1.53690745 2.41040161 2.09752136 3.50082285 1.5390625 6.359375 C1.23742187 7.14828125 0.93578125 7.9371875 0.625 8.75 C0.32851562 9.54921875 0.03203125 10.3484375 -0.2734375 11.171875 C-0.51320312 11.77515625 -0.75296875 12.3784375 -1 13 C-1.66 12.67 -2.32 12.34 -3 12 C-2.49202991 7.6822542 -1.80317221 3.96697886 0 0 Z " fill="#806A5D" transform="translate(221,138)"/>
<path d="M0 0 C2.475 0.495 2.475 0.495 5 1 C4.67 2.32 4.34 3.64 4 5 C2.68 5 1.36 5 0 5 C0 3.35 0 1.7 0 0 Z " fill="#979596" transform="translate(197,238)"/>
<path d="M0 0 C0.66 0 1.32 0 2 0 C2.33 0.66 2.66 1.32 3 2 C3.99 1.67 4.98 1.34 6 1 C6 1.99 6 2.98 6 4 C5.34 4 4.68 4 4 4 C3.34 5.32 2.68 6.64 2 8 C0 2.25 0 2.25 0 0 Z " fill="#7C7674" transform="translate(141,231)"/>
<path d="M0 0 C0.99 0.33 1.98 0.66 3 1 C2.484375 1.391875 1.96875 1.78375 1.4375 2.1875 C0.7259375 3.0846875 0.7259375 3.0846875 0 4 C0.23043864 6.65466049 0.23043864 6.65466049 1 9 C-0.32 8.34 -1.64 7.68 -3 7 C-2.25 2.25 -2.25 2.25 0 0 Z " fill="#7D675B" transform="translate(230,203)"/>
<path d="M0 0 C0.99 0.33 1.98 0.66 3 1 C2.67 2.65 2.34 4.3 2 6 C0.68 5.67 -0.64 5.34 -2 5 C-2 3.68 -2 2.36 -2 1 C-1.34 0.67 -0.68 0.34 0 0 Z " fill="#898887" transform="translate(220,267)"/>
<path d="M0 0 C0.99 0.33 1.98 0.66 3 1 C3 2.65 3 4.3 3 6 C1.68 6 0.36 6 -1 6 C-1.042721 4.33388095 -1.04063832 2.66617115 -1 1 C-0.67 0.67 -0.34 0.34 0 0 Z " fill="#888483" transform="translate(304,247)"/>
<path d="M0 0 C1.65 0 3.3 0 5 0 C5 1.65 5 3.3 5 5 C4.67 3.68 4.34 2.36 4 1 C3.34 1 2.68 1 2 1 C2 2.32 2 3.64 2 5 C1.01 4.67 0.02 4.34 -1 4 C-0.67 2.68 -0.34 1.36 0 0 Z " fill="#808085" transform="translate(264,244)"/>
<path d="M0 0 C3.95820859 0.56545837 6.6659053 1.80902348 10 4 C9.34 4.66 8.68 5.32 8 6 C5.36 4.68 2.72 3.36 0 2 C0 1.34 0 0.68 0 0 Z " fill="#6C5446" transform="translate(266,125)"/>
<path d="M0 0 C0.66 0 1.32 0 2 0 C2 0.66 2 1.32 2 2 C2.66 2 3.32 2 4 2 C4 3.98 4 5.96 4 8 C3.67 6.68 3.34 5.36 3 4 C2.34 4 1.68 4 1 4 C0.67 4.99 0.34 5.98 0 7 C0 4.69 0 2.38 0 0 Z " fill="#7A7574" transform="translate(234,239)"/>
<path d="M0 0 C-2.75 1.625 -2.75 1.625 -6 3 C-8.375 2.1875 -8.375 2.1875 -10 1 C-3.71428571 -1.42857143 -3.71428571 -1.42857143 0 0 Z " fill="#725B4D" transform="translate(275,213)"/>
<path d="M0 0 C0.66 0.99 1.32 1.98 2 3 C-0.97 5.475 -0.97 5.475 -4 8 C-4.66 7.34 -5.32 6.68 -6 6 C-5.195625 5.38125 -4.39125 4.7625 -3.5625 4.125 C-0.96125481 2.25835959 -0.96125481 2.25835959 0 0 Z " fill="#776154" transform="translate(287,179)"/>
<path d="M0 0 C1.32 0 2.64 0 4 0 C4 1.65 4 3.3 4 5 C2.35 4.67 0.7 4.34 -1 4 C-0.67 2.68 -0.34 1.36 0 0 Z " fill="#6C6969" transform="translate(273,245)"/>
<path d="M0 0 C4.455 2.97 4.455 2.97 9 6 C8.34 6.66 7.68 7.32 7 8 C5.8274869 7.04882866 4.66212985 6.08882991 3.5 5.125 C2.8503125 4.59132812 2.200625 4.05765625 1.53125 3.5078125 C1.0259375 3.01023438 0.520625 2.51265625 0 2 C0 1.34 0 0.68 0 0 Z " fill="#634B3D" transform="translate(218,174)"/>
<path d="M0 0 C2.97 0.495 2.97 0.495 6 1 C6 1.99 6 2.98 6 4 C3.03 3.505 3.03 3.505 0 3 C0 2.01 0 1.02 0 0 Z " fill="#EBE6DC" transform="translate(227,120)"/>
<path d="M0 0 C-2.97 0.66 -5.94 1.32 -9 2 C-8.67 1.01 -8.34 0.02 -8 -1 C-3.375 -2.25 -3.375 -2.25 0 0 Z " fill="#E0D6CD" transform="translate(265,215)"/>
<path d="M0 0 C1.09658936 3.28976808 0.79953138 4.71303767 0 8 C-0.99 7.67 -1.98 7.34 -3 7 C-1.125 1.125 -1.125 1.125 0 0 Z " fill="#7E685C" transform="translate(255,201)"/>
</svg>
